<svg width="1920" height="1178" viewBox="0 0 1920 1178" fill="none" xmlns="http://www.w3.org/2000/svg">
<rect y="0.735352" width="1920" height="1177" fill="#FDFDFD"/>
<path d="M1686.1 318.451C1673.28 318.451 1666.07 311.804 1666.07 302.233C1666.07 292.13 1671.15 287.573 1682.73 286.281C1683.64 286.205 1682.08 282.104 1680.45 279.901C1679.8 279.179 1682.19 279.179 1683.9 279.977C1686.25 281.078 1688.53 283.433 1689.44 285.978L1689.71 286.813C1699.8 286.889 1706.29 292.282 1706.29 302.043C1706.29 302.955 1706.21 303.866 1706.1 304.702C1711.03 305.613 1720.21 305.234 1725.6 304.892L1725.41 295.321C1720.02 295.397 1713.38 295.587 1710.91 296.764C1710.38 297.144 1707.35 295.017 1705.64 292.586C1704.54 291.219 1704.35 289.852 1705.26 290.041C1709.89 291.333 1719.64 290.953 1725.37 290.573L1725.29 283.015C1725.29 279.179 1719.91 276.824 1717.55 276.179C1716.26 275.799 1718.46 274.735 1721.12 274.735C1725.94 274.735 1737.78 277.926 1737.59 279.103C1737.21 281.458 1737.32 284.306 1737.21 287.231L1736.68 309.753C1736.6 313.931 1732.39 316.666 1728.75 317.691C1726.85 318.223 1724.27 318.527 1724.65 317.691C1725.37 316.134 1725.56 313.855 1725.56 309.753C1720.1 309.829 1713.34 310.019 1710.91 311.197C1710.38 311.462 1707.35 309.449 1705.64 307.095C1705.64 307.095 1705.64 307.019 1705.57 307.019C1703.48 313.931 1696.72 318.489 1686.06 318.489L1686.1 318.451ZM1686.1 311.69C1692.21 311.69 1694.68 306.943 1694.68 302.195C1694.68 296.726 1692.93 292.434 1687.85 291.333C1687.39 291.713 1686.86 291.865 1686.41 291.978C1679.2 292.89 1677.75 296.346 1677.75 302.081C1677.75 306.829 1679.77 311.652 1686.14 311.652L1686.1 311.69ZM1742.22 356.165C1734.55 357.077 1706.06 357.153 1701.51 356.887C1694.75 356.507 1690.77 355.064 1690.77 347.962V342.568C1690.77 340.555 1687.51 339.112 1684.58 338.846C1682.95 338.656 1685.42 336.757 1688.15 336.567C1693.16 336.188 1701.81 337.023 1703.55 337.669C1708.11 337.745 1715.58 337.403 1722.03 336.947C1722.41 334.213 1722.75 329.845 1722.87 327.832C1717.33 327.908 1698.01 328.098 1694.37 329.845C1693.65 330.225 1689.74 328.288 1686.82 325.021C1685.65 323.388 1685.08 321.755 1685.99 322.021C1687.16 322.477 1688.26 322.743 1690.09 322.933C1696.19 323.92 1719.03 322.933 1722.94 322.401C1724.84 321.869 1725.48 321.033 1726.85 320.312C1728.86 319.4 1738.23 323.882 1737.4 325.515C1737.02 326.161 1736.22 327.262 1735.77 328.44C1734.67 330.453 1733.49 333.909 1732.58 336.378C1733.94 336.833 1736.03 338.125 1736.22 339.302C1736.41 340.479 1736.03 341.505 1735.12 341.657C1733.68 342.037 1711.45 342.492 1703.44 342.644V348.949C1703.44 351.418 1703.63 351.76 1706.44 352.063C1709.17 352.253 1720.1 352.063 1724.46 351.418C1728.48 350.886 1731.74 349.519 1735.58 347.506C1736.94 346.974 1743.39 349.709 1743.96 352.329C1744.34 353.697 1743.51 355.975 1742.22 356.241V356.165Z" fill="#0A0A0A"/>
<path d="M1836.04 350.861C1836.3 357.315 1829.47 361.605 1828.29 359.327C1824.92 353.48 1818.35 344.369 1814.25 340.648C1808.14 348.925 1799.94 357.429 1789.27 361.225C1783.61 363.237 1779.97 361.681 1781.52 360.959C1783.08 360.238 1784.52 359.403 1786 358.226C1797.32 349.646 1808.52 329.715 1810.98 322.16C1811.97 319.047 1811.51 317.225 1807.34 314.947C1806.05 314.301 1808.33 313.504 1811.51 313.96C1816.15 314.605 1827.19 319.806 1826.36 321.249C1825.83 322.16 1824.54 324.362 1823.7 325.88C1821.95 328.88 1819.68 332.714 1816.87 336.814C1823.25 339.472 1835.81 347.482 1836 350.861H1836.04ZM1867.4 523.711C1852.17 521.358 1799.86 522.345 1791.32 525.609C1790.41 525.989 1785.47 522.686 1783.04 519.156C1781.49 516.878 1781.03 514.41 1782.13 515.055C1783.04 515.511 1784.22 516.043 1786.76 516.422C1803.69 518.244 1844.28 516.498 1849.82 515.777C1854.45 515.245 1857.56 514.486 1860.56 513.423C1862.31 512.702 1868.95 515.967 1869.75 518.814C1870.47 521.547 1868.46 523.825 1867.4 523.749V523.711ZM1790.22 266.429C1784.03 267.871 1781.18 266.429 1782.74 265.707C1784.49 264.872 1786.12 263.885 1787.67 262.898C1796.86 256.976 1810.53 240.651 1816.75 229.452C1811.21 229.528 1800.81 229.907 1797.89 231.464C1797.16 231.729 1793.52 229.566 1790.86 226.263C1789.69 224.82 1789.23 222.998 1790.03 223.264C1791.2 223.719 1792.31 223.909 1794.13 224.175C1800.24 225.162 1813.98 224.175 1817.89 223.643C1820.82 223.112 1822.26 222.542 1824.19 221.745C1825.94 221.024 1834.75 225.845 1833.69 227.288C1832.96 228.465 1831.33 230.856 1829.96 232.755C1827.5 236.209 1824.42 240.233 1820.93 244.144C1826.78 246.801 1836.34 252.154 1837.14 255.267C1838.43 260.278 1831.48 266.201 1830.12 263.999C1827 259.178 1821.65 251.888 1817.82 247.598C1809.81 256.178 1799.97 264.075 1790.22 266.467V266.429ZM1840.44 418.665C1840.71 420.753 1839.61 422.689 1838.89 422.575C1827.76 421.132 1802.37 421.398 1792.5 423.562C1791.66 423.752 1788.13 420.373 1786.5 417.64C1785.32 415.893 1785.05 413.615 1786.31 414.375C1786.95 414.64 1789.04 415.096 1790.41 415.362C1803.16 416.994 1826.32 415.628 1830.04 414.982C1832.05 414.716 1833.69 414.261 1835.43 413.615C1836.99 413.16 1840.06 416.615 1840.44 418.627V418.665ZM1856.77 539.77C1857.41 542.314 1855.59 543.87 1854.56 543.794C1847.92 542.959 1837.71 542.693 1827.88 542.883C1828.86 543.794 1829.7 545.085 1830.08 546.452C1839.11 546.642 1844.85 549.717 1844.85 555.943C1844.85 562.7 1838.54 566.231 1827.27 566.231C1815.99 566.231 1809.69 562.662 1809.69 555.943C1809.69 549.223 1814.78 546.186 1824.35 545.541C1825.33 545.465 1824.99 544.174 1824.35 542.997C1815.05 543.377 1806.77 544.174 1803.2 545.541C1802.37 545.806 1797.73 542.997 1795.46 539.808C1794.01 537.796 1793.82 535.784 1794.81 536.239C1795.65 536.695 1796.82 537.227 1799.29 537.53C1814.78 539.352 1835.55 537.72 1840.56 537.075C1844.73 536.429 1846.55 535.898 1849.29 534.873C1850.92 534.227 1855.93 537.151 1856.77 539.808V539.77ZM1833.99 442.354C1833.99 451.921 1825.98 457.198 1814.59 457.198C1803.2 457.198 1795.27 451.921 1795.27 442.354C1795.27 432.787 1802.1 428.497 1811.67 427.776C1813.11 427.7 1813.56 424.967 1812.65 422.689C1812.39 422.043 1814.02 421.968 1815.31 423.144C1816.68 424.321 1817.59 426.333 1817.78 428.611C1826.81 428.877 1833.99 433.357 1833.99 442.354ZM1800.09 402.985C1799.18 401.543 1798.53 398.961 1799.63 399.607C1804 401.885 1809.39 402.074 1813.68 401.96C1817.25 401.885 1820.25 401.315 1821.5 401.049C1823.4 400.594 1826.89 405.605 1827.04 408.073C1827.04 409.174 1825.22 410.882 1817.4 410.806C1810.76 410.73 1802.82 407.427 1800.09 402.985ZM1805.17 499.566C1805.17 489.733 1811.63 486.279 1823.32 484.912C1824.16 484.836 1822.49 480.812 1820.97 478.534C1820.32 477.889 1822.6 477.889 1824.35 478.724C1826.81 479.825 1829.09 482.103 1830 484.646C1830.08 484.912 1830.19 485.178 1830.19 485.481C1840.59 485.406 1848.15 489.582 1848.15 499.414C1848.15 508.602 1839.57 513.537 1826.66 513.537C1813.75 513.537 1805.25 508.791 1805.25 499.604L1805.17 499.566ZM1822.56 442.354C1822.56 437.988 1820.66 434.154 1816.64 432.522C1815.92 433.053 1815.2 433.243 1814.55 433.243C1809.01 433.243 1806.62 437.533 1806.62 442.354C1806.62 447.176 1809.54 450.554 1814.55 450.554C1819.56 450.554 1822.56 447.365 1822.56 442.354ZM1864.09 289.663C1856.42 290.764 1829.66 290.764 1824.99 290.498C1818.35 290.118 1814.32 288.6 1814.32 281.462V272.351C1814.32 270.453 1811.06 269.086 1808.14 268.707C1806.39 268.517 1808.97 266.618 1811.7 266.429C1817.25 266.049 1827 267.34 1826.93 268.175C1826.85 269.276 1826.55 271.896 1826.55 274.477V282.487C1826.55 284.841 1826.74 285.297 1829.55 285.487C1832.2 285.676 1841.92 285.487 1846.33 284.841C1850.35 284.386 1853.62 282.943 1857.45 281.007C1858.82 280.361 1865.27 283.095 1865.92 285.752C1866.18 287.195 1865.38 289.473 1864.09 289.663ZM1813.15 528.571C1812.24 527.128 1811.59 524.66 1812.77 525.306C1816.87 527.508 1823.06 527.66 1827.16 527.584C1830.15 527.508 1832.24 527.128 1833.53 526.748C1835.36 526.293 1838.47 530.849 1838.47 532.671C1838.47 533.772 1834.82 535.67 1829.09 535.328C1821.42 534.949 1815.8 532.975 1813.15 528.571ZM1816.72 499.604C1816.72 503.628 1819.52 506.817 1826.55 506.817C1833.57 506.817 1836.38 503.628 1836.38 499.604C1836.38 494.517 1834.56 491.328 1828.18 490.037C1827.72 490.417 1827.27 490.569 1826.81 490.683C1818.69 491.518 1816.72 494.327 1816.72 499.604ZM1829.09 550.286C1828.45 550.818 1827.72 551.121 1827.19 551.121C1821.65 551.121 1820.44 553.323 1820.44 555.943C1820.44 558.752 1822.07 560.878 1827.19 560.878C1832.32 560.878 1833.95 558.79 1833.95 555.943C1833.95 553.741 1833.12 551.843 1829.13 550.286H1829.09ZM1846.9 238.981L1846.82 219.125C1846.82 215.291 1841.54 212.937 1839.08 212.292C1837.79 211.836 1839.99 210.735 1842.64 210.735C1847.58 210.735 1859.31 213.924 1859.12 215.215C1858.74 217.493 1858.74 220.302 1858.74 223.226L1858.21 262.025C1858.13 267.112 1853.92 272.047 1850.39 273.414C1848.38 274.059 1845.91 274.325 1846.29 273.604C1847.12 271.782 1847.12 269.048 1847.12 263.847L1847.05 243.802C1841.96 243.802 1836.11 244.068 1833.84 245.169C1833.31 245.435 1830.27 243.347 1828.56 241.069C1827.46 239.626 1827.27 238.335 1828.18 238.525C1832.47 239.512 1841.2 239.246 1846.93 238.981H1846.9ZM1859.12 304.659C1858.74 306.936 1858.74 309.746 1858.74 312.669L1858.29 362.326C1858.21 376.069 1854.26 381.536 1850.27 384.193C1848.07 385.75 1845.99 385.636 1846.17 385.18C1847.09 383.282 1847.09 380.625 1847.09 375.348L1846.82 308.569C1846.82 304.848 1841.43 302.457 1839.08 301.735C1837.79 301.356 1839.99 300.179 1842.64 300.179C1847.47 300.179 1859.31 303.444 1859.12 304.659ZM1859.12 394.861C1858.74 397.139 1858.74 399.948 1858.74 402.872L1858.29 452.529C1858.21 466.272 1854.26 471.738 1850.27 474.396C1848.07 475.952 1845.99 475.839 1846.17 475.383C1847.09 473.485 1847.09 470.827 1847.09 465.55L1846.82 398.771C1846.82 395.051 1841.43 392.659 1839.08 391.938C1837.79 391.558 1839.99 390.381 1842.64 390.381C1847.47 390.381 1859.31 393.646 1859.12 394.861Z" fill="#0A0A0A"/>
<path d="M1853.23 576.45C1858.25 576.45 1862.37 580.576 1862.37 585.593C1862.37 590.61 1858.25 594.736 1853.23 594.736C1848.21 594.736 1844.09 590.61 1844.09 585.593C1844.09 580.576 1848.21 576.45 1853.23 576.45ZM1853.23 591.651C1856.54 591.651 1859.29 588.864 1859.29 585.593C1859.29 582.322 1856.5 579.535 1853.23 579.535C1849.96 579.535 1847.17 582.322 1847.17 585.593C1847.17 588.864 1849.96 591.651 1853.23 591.651Z" fill="#0A0A0A"/>
<path d="M1708.53 531.587C1708.34 538.167 1702.54 541.438 1701.51 539.156C1699.5 534.326 1697.79 530.484 1695.4 527.023C1691.38 533.413 1686.56 538.966 1680.84 541.819C1675.11 544.557 1671.81 543.568 1673.29 542.541C1674.65 541.552 1676.02 540.335 1677.46 538.624C1685.2 530.028 1691.5 516.068 1694.83 504.582C1692.63 504.582 1690.36 504.772 1688.65 505.494C1688.2 505.685 1687.1 505.038 1685.99 503.745C1684.1 507.586 1681.9 511.961 1679.36 516.335C1682.62 518.084 1686.11 520.366 1686.37 522.192C1687.1 526.566 1681.63 530.864 1680.65 528.963C1679.74 527.061 1677.91 524.018 1676.17 521.393C1672.26 527.137 1667.44 532.272 1661.68 535.277C1658.57 537.102 1654.77 536.722 1656.14 535.733C1657.58 534.63 1658.41 533.983 1659.7 532.462C1666.61 524.512 1671.16 514.737 1674.27 505C1672.19 505 1667.82 505.532 1666.15 506.293C1665.43 506.674 1662.59 504.734 1660.96 502.261C1659.97 500.968 1659.67 499.447 1660.58 499.713C1661.3 500.093 1662.02 500.36 1663.76 500.55C1667.48 500.93 1672.22 500.474 1673.78 500.093C1675.6 499.637 1676.89 498.914 1677.42 498.648C1678.26 498.115 1681.33 499.104 1683.6 500.398C1683.42 499.675 1683.53 499.218 1684.06 499.409C1684.89 499.675 1685.62 500.055 1687.25 500.245C1690.89 500.626 1692.79 500.169 1694.53 499.713C1696.09 499.333 1697.53 498.344 1697.98 497.963C1699.42 496.974 1708.26 500.702 1707.54 502.337C1705.08 508.081 1702.08 515.384 1698.25 522.344C1703.33 525.463 1708.53 529.115 1708.45 531.739L1708.53 531.587ZM1679.85 436.383C1678.86 440.225 1675.11 442.697 1672.38 443.42C1670.02 444.142 1668.35 444.142 1668.47 443.686C1669.38 441.86 1669.11 438.019 1669 434.633L1668.54 409.34C1668.62 407.324 1665.43 405.878 1662.55 405.422C1660.92 405.042 1663.73 403.406 1666.19 403.216C1671.58 402.95 1680.23 404.205 1680.11 404.965C1680.04 406.145 1680.04 408.693 1680.04 411.279V414.094C1684.78 414.094 1692.52 413.904 1697.07 413.714V403.672C1697.26 401.77 1693.96 400.211 1691.23 399.488C1689.6 399.032 1692.52 397.663 1695.14 397.586C1700.52 397.396 1709.17 399.945 1709.06 400.591C1708.98 401.77 1708.68 404.167 1708.68 406.715L1708.61 417.289C1712.7 418.278 1719.99 418.202 1725.45 417.936L1725.37 398.233C1725.37 394.391 1720.1 392.033 1717.63 391.387C1716.34 390.93 1718.55 389.827 1721.2 389.827C1726.13 389.827 1737.86 393.022 1737.67 394.315C1737.29 396.598 1737.29 399.412 1737.29 402.341L1736.76 440.301C1736.68 445.398 1732.47 450.342 1728.94 451.712C1726.93 452.358 1724.46 452.624 1724.84 451.902C1725.68 450.076 1725.68 447.337 1725.68 442.127L1725.6 422.5C1720.78 422.576 1715.78 422.88 1713.77 423.945C1713.12 424.326 1710.39 422.31 1708.57 420.028L1708.49 431.705C1708.42 436.725 1703.75 439.73 1700.37 440.909C1697.72 441.822 1696.2 441.556 1696.28 441.1C1696.81 439.997 1697 437.905 1697 435.889C1692.44 435.965 1684.63 436.079 1679.89 436.345L1679.85 436.383ZM1697.07 418.849C1692.44 418.925 1684.59 419.039 1680.04 419.229V430.83C1685.05 430.83 1692.6 430.754 1697.07 430.564V418.887V418.849ZM1742.79 468.866C1735.12 469.969 1708.38 469.969 1703.71 469.703C1697.07 469.322 1693.05 467.801 1693.05 460.764V452.092C1693.05 450 1689.67 448.631 1686.87 448.364C1685.24 448.174 1687.7 446.272 1690.43 446.082C1695.97 445.702 1705.72 446.995 1705.65 447.832C1705.57 449.011 1705.27 451.483 1705.27 454.032V461.601C1705.27 464.073 1705.46 464.416 1708.26 464.72C1710.92 464.91 1720.63 464.72 1725.03 464.073C1729.13 463.617 1732.32 462.172 1736.15 460.232C1737.51 459.585 1744.08 462.324 1744.53 464.986C1744.8 466.432 1744.15 468.714 1742.79 468.904V468.866ZM1737.25 483.548C1736.87 485.754 1736.87 488.492 1736.87 491.307L1736.49 541.514C1736.41 554.941 1732.66 560.418 1728.83 562.891C1726.47 564.336 1724.54 564.26 1724.73 563.727C1725.56 561.978 1725.56 559.429 1725.56 554.218L1725.49 522.002C1723.59 522.002 1721.58 522.078 1719.65 522.192L1719.57 534.44C1719.49 547.144 1716 552.317 1712.29 554.713C1710.2 556.006 1708.26 555.892 1708.38 555.55C1709.29 553.8 1709.29 551.442 1709.29 546.611L1709.02 494.92C1709.02 491.801 1705 489.709 1702.84 489.063C1701.55 488.606 1703.75 487.503 1706.03 487.503C1710.96 487.503 1720.52 490.052 1720.33 491.079C1719.95 493.361 1719.95 496.023 1719.95 498.648L1719.76 516.449C1721.66 516.449 1723.67 516.373 1725.41 516.259L1725.34 487.503C1725.34 483.852 1720.06 481.494 1717.86 480.847C1716.57 480.391 1718.7 479.212 1721.24 479.212C1726.44 479.212 1737.44 482.407 1737.25 483.586V483.548Z" fill="#0A0A0A"/>
<path d="M233.656 839.035C209.126 861.071 158.449 879.493 84.4251 896.344C77.9968 897.13 57.4893 875.094 57.4893 863.899L55.8724 752.893C55.8724 742.484 39.7819 735.257 26.4915 734.078C18.8407 733.293 30.1198 725.279 42.582 724.062C63.4838 722.844 106.944 728.461 106.549 732.075C106.155 736.867 104.933 747.316 104.933 758.903L105.721 843.434C105.721 846.655 107.733 847.833 110.138 847.833C154.387 844.612 218.354 831.807 240.873 819.787C248.524 816.566 244.896 829.804 233.617 839.035H233.656ZM348.695 917.163C347.473 923.958 346.684 933.975 346.289 945.994L344.278 1001.3C343.489 1022.94 335.838 1036.57 317.342 1044.98C306.497 1050.2 291.59 1050.2 292.812 1047.77C295.218 1042.15 295.612 1034.53 296.046 1021.73C262.643 1022.94 219.616 1023.73 193.075 1024.95C178.996 1045.37 145.592 1049.38 147.604 1045.37C151.232 1037.75 152.415 1026.13 151.232 1002.52L147.998 929.182C147.604 919.952 133.13 913.942 120.629 912.763C113.372 911.978 124.257 903.965 136.325 902.747C156.043 901.529 187.002 905.536 196.27 908.757C221.194 909.542 277.511 907.539 288.79 904.75C295.218 902.747 300.463 901.136 306.103 898.348C313.754 894.341 349.563 911.585 348.734 917.163H348.695ZM355.123 693.973C353.506 703.99 353.901 716.402 353.506 729.247L351.101 840.213C350.706 858.635 332.21 876.272 316.514 882.282C307.68 885.071 296.401 886.289 298.018 883.068C301.646 875.054 302.435 863.035 302.041 840.174L301.646 784.082C275.105 784.867 234.051 784.475 222.417 790.877C220.011 792.488 207.115 782.864 198.675 772.455C194.653 766.445 193.43 760.435 197.453 761.221C219.971 766.838 276.682 764.835 301.252 762.831L300.857 711.139C300.857 694.327 277.511 683.878 266.665 681.089C261.026 679.086 270.688 674.294 282.361 674.294C304.091 674.294 355.991 688.317 355.163 693.934L355.123 693.973ZM296.007 929.968C274.671 929.968 228.805 930.754 197.847 932.757V937.981L198.636 1000.08C223.994 999.69 266.626 998.865 296.007 997.294V929.968Z" fill="#0A0A0A"/>
<path d="M726.089 692.886C724.468 702.901 724.468 715.311 724.468 728.154L722.452 946.478C722.057 1006.96 704.706 1031 686.959 1042.62C677.276 1049.42 668.027 1049.02 668.817 1047.02C672.849 1038.61 672.849 1026.99 672.849 1003.74L672.058 841.499C651.11 842.284 629.332 843.894 622.455 847.9C620.044 848.686 609.57 844.68 599.886 836.275V842.284C599.886 890.748 563.998 924.799 501.905 924.799C439.812 924.799 404.318 890.748 404.318 842.284C404.318 790.992 439.377 766.564 483.763 761.38C487.794 760.987 479.731 742.96 473.289 733.338C470.483 729.332 480.957 729.725 489.415 733.731C500.284 738.13 510.798 748.537 515.225 760.555C515.62 761.773 516.015 762.951 516.015 764.561C558.346 766.957 587.792 784.591 597.041 818.641C617.593 821.862 649.45 820.644 672.019 818.641L671.624 710.088C671.624 693.671 647.83 683.264 637.356 680.043C631.704 678.433 641.387 673.249 653.087 673.249C674.469 673.249 726.879 687.663 726.049 692.886H726.089ZM546.291 842.323C546.291 810.276 537.003 792.249 510.007 786.24C507.201 790.639 503.565 793.467 500.719 793.859C470.483 795.077 457.993 809.49 457.993 842.323C457.993 867.577 469.692 889.609 501.944 889.609C534.196 889.609 546.291 867.577 546.291 842.323Z" fill="#0A0A0A"/>
<path d="M1016.9 724.367C1015.28 734.391 1015.28 746.026 1015.28 757.662L1013.27 914.859C1012.48 970.599 997.571 993.438 981.476 1003.89C971.812 1009.51 963.765 1009.12 964.159 1007.51C968.183 999.884 968.183 989.467 968.183 968.201L967.788 855.148L936.823 856.367C932.01 893.671 902.622 919.301 852.722 919.301C798.009 919.301 767.833 888.011 767.833 844.731C767.833 801.452 795.603 774.958 837.022 771.734C841.046 771.341 834.616 756.915 827.752 747.284C824.951 744.061 834.577 744.493 842.229 747.677C852.288 752.08 861.124 762.104 865.976 773.346L866.765 775.351C906.606 778.574 931.537 799.015 936.783 832.31C946.842 832.31 957.296 832.31 967.354 831.524L966.96 741.309C966.96 727.669 949.248 718.471 939.584 715.64C933.549 713.636 943.213 708.84 953.666 708.84C975.402 708.84 1017.65 720.082 1016.82 724.485L1016.9 724.367ZM888.934 843.434C888.934 818.591 882.504 800.116 857.535 796.106C854.734 797.718 851.894 798.504 849.093 798.897C822.545 800.902 816.904 823.74 816.904 843.395C816.904 865.447 826.963 885.888 852.722 885.888C878.481 885.888 888.934 865.447 888.934 843.395V843.434ZM1093.78 691.505C1092.16 701.135 1092.16 713.164 1092.16 725.586L1090.55 946.109C1090.15 1005.07 1073.66 1029.13 1056.74 1039.94C1046.29 1046.35 1037.85 1045.95 1038.63 1043.56C1042.26 1035.93 1042.26 1024.73 1042.26 1001.85L1041.04 708.722C1041.04 692.684 1017.69 682.267 1008.06 679.437C1002.42 677.432 1011.69 672.204 1022.94 672.204C1045.85 672.204 1094.57 686.237 1093.74 691.465L1093.78 691.505Z" fill="#0A0A0A"/>
<path d="M1403.91 879.076C1376.18 906.724 1317.53 928.364 1243.6 945.174C1237.57 945.566 1216.69 924.358 1216.69 912.733L1215.08 776.531C1215.08 766.124 1199.01 758.897 1186.17 758.112C1178.53 757.326 1189.4 748.49 1201.84 747.704C1222.72 746.487 1266.96 752.103 1266.96 755.323C1266.56 760.115 1264.95 771.347 1264.95 782.579L1266.17 889.954C1266.17 892.35 1267.78 894.353 1270.19 894.353C1306.74 891.133 1374.25 877.937 1410.02 859.085C1418.45 854.294 1413.25 870.317 1403.99 879.115L1403.91 879.076ZM1499.12 690.796C1497.5 700.811 1497.5 713.222 1497.5 726.064L1495.49 944.388C1495.1 1004.87 1477.81 1028.91 1460.12 1040.53C1450.47 1047.33 1441.26 1046.93 1442.04 1044.93C1446.06 1036.52 1446.06 1024.9 1446.06 1001.65L1445.27 809.757C1419.95 810.15 1383 810.15 1370.55 816.159C1367.75 817.376 1354.87 808.54 1347.23 798.132C1342.43 791.73 1341.6 786.114 1345.62 786.9C1369.33 792.516 1423.96 789.688 1445.27 788.117L1444.88 707.998C1444.88 691.582 1421.17 681.174 1410.73 677.954C1405.1 676.343 1414.75 671.159 1426.41 671.159C1447.72 671.159 1499.95 685.573 1499.12 690.796Z" fill="#0A0A0A"/>
<path d="M1869.99 690.796C1868.38 700.811 1868.38 713.222 1868.38 726.064L1866.37 944.388C1865.98 1004.87 1848.7 1028.91 1831.02 1040.53C1821.38 1047.33 1812.17 1046.93 1812.96 1044.93C1816.97 1036.52 1816.97 1024.9 1816.97 1001.65L1816.18 843.415C1796.9 844.632 1777.65 846.635 1770.8 850.209C1768.4 851.427 1752.34 844.2 1740.69 830.965L1739.47 829.747C1735.45 848.56 1730.22 869.414 1726.64 884.22C1731.87 884.613 1743.92 891.84 1745.1 897.849C1745.88 902.64 1743.88 908.649 1739.86 909.866C1734.23 911.477 1651.93 912.655 1618.59 913.087C1606.94 937.515 1568.4 943.131 1570.41 938.34C1573.64 930.721 1575.21 918.703 1573.64 894.667L1566.83 780.105C1566.43 770.876 1552.38 764.867 1539.12 763.689C1531.87 762.903 1542.34 755.284 1554.78 753.674C1578.48 751.278 1618.63 757.68 1619.41 760.9C1646.3 759.683 1684.87 758.112 1692.9 756.894C1701.33 754.499 1706.95 751.278 1714.2 746.879C1723.01 743.266 1760.76 763.296 1757.57 770.522C1756.35 773.311 1750.76 785.329 1747.93 795.343C1746.71 800.135 1744.7 808.972 1741.91 819.772C1761.19 823.385 1792.92 822.992 1816.18 820.989L1815.79 707.998C1815.79 691.582 1792.09 681.174 1781.66 677.954C1776.03 676.343 1785.68 671.159 1797.33 671.159C1818.62 671.159 1870.82 685.573 1869.99 690.796ZM1692.12 782.933C1679.68 783.326 1643.15 784.543 1617.84 785.721V788.51L1621.07 889.051C1638.74 888.658 1665.23 887.834 1687.71 887.048C1689.32 855.786 1691.72 798.917 1692.12 782.894V782.933Z" fill="#0A0A0A"/>
</svg>
