<?xml version="1.0" encoding="utf-8"?>
<!-- Generator: Adobe Illustrator 26.3.1, SVG Export Plug-In . SVG Version: 6.00 Build 0)  -->
<svg version="1.1" id="Layer_1" xmlns="http://www.w3.org/2000/svg" xmlns:xlink="http://www.w3.org/1999/xlink" x="0px" y="0px"
	 viewBox="0 0 45 30" style="enable-background:new 0 0 45 30;" xml:space="preserve">
<style type="text/css">
	.st0{fill:#FFFFFF;}
	.st1{fill-rule:evenodd;clip-rule:evenodd;fill:#FFFFFF;}
</style>
<path class="st0" d="M21.8,23c0-3.4-1.5-4.9-4.2-4.9c-2.8,0-4.3,1.6-4.3,4.9c0,3.4,1.4,4.9,4.3,4.9C20.3,27.9,21.8,26.5,21.8,23z
	 M9.6,4.1C8.1,2.6,7.8,1.6,9.9,2.4c2.6,0.9,5.5,0.8,9.7,0.7C22.6,2.8,25,4,23.9,6.7c-0.7,1.6-3.2,2.1-5.8,1.8
	C14.3,8.1,12,6.6,9.6,4.1L9.6,4.1z M5.6,23.2c0-5.4,4.8-6.7,12-6.8c7-0.1,11.8,1.3,11.8,6.8s-4.8,6.7-11.8,6.8
	C10.4,30.1,5.6,28.7,5.6,23.2z M0.3,11.9c-0.5-0.6-0.4-1,0.1-0.9c0.7,0.1,2.5,0.7,6.1,0.7l19.2-0.2c2.1,0,3-2.6,4.4-2.6
	c0.8,0,3.6,1.4,4,3.2c0.4,1.3-0.3,1.8-1.8,1.7c-5.1-0.4-9.6-0.3-13-0.3c-3,0-8.5,0.1-11.1,0.5c-2.2,0.4-1.8,1-2.3,1
	C4.8,14.8,1.2,13.2,0.3,11.9z"/>
<path class="st0" d="M34.6,2.3h-1.2V0.1h4v8h-2.8V2.3z"/>
<path class="st1" d="M41.3,8c2.3,0,3.2-1.6,3.2-4c0-2.4-0.9-4-3.2-4c-2.3,0-3.2,1.6-3.2,4S39,8,41.3,8z M40.4,4c0-1,0.1-1.7,0.9-1.7
	c0.8,0,0.9,0.7,0.9,1.7c0,1-0.1,1.7-0.9,1.7C40.5,5.7,40.4,5,40.4,4z"/>
</svg>
